<mxfile host="app.diagrams.net" modified="2024-07-30T19:03:16.929Z" agent="Mozilla/5.0 (Windows NT 10.0; Win64; x64) AppleWebKit/537.36 (KHTML, like Gecko) Chrome/124.0.0.0 Safari/537.36 Edg/124.0.0.0" etag="A8OSmshAKhCKwOlSXH3a" version="24.6.4" type="github">
  <diagram name="Page-1" id="jrThCYsuS3wixjycTsM8">
    <mxGraphModel dx="2759" dy="2338" grid="1" gridSize="10" guides="1" tooltips="1" connect="1" arrows="1" fold="1" page="1" pageScale="1" pageWidth="850" pageHeight="1100" math="0" shadow="0">
      <root>
        <mxCell id="0" />
        <mxCell id="1" parent="0" />
        <mxCell id="6mGawIAPWgqgbx2S7A8o-1" value="&lt;font style=&quot;font-size: 17px;&quot;&gt;Edge&lt;/font&gt;" style="ellipse;shape=cloud;whiteSpace=wrap;html=1;" parent="1" vertex="1">
          <mxGeometry x="40" y="190" width="100" height="70" as="geometry" />
        </mxCell>
        <mxCell id="6mGawIAPWgqgbx2S7A8o-2" value="&lt;span style=&quot;font-size: 17px;&quot;&gt;Edge&lt;/span&gt;" style="ellipse;shape=cloud;whiteSpace=wrap;html=1;" parent="1" vertex="1">
          <mxGeometry x="505" y="390" width="100" height="70" as="geometry" />
        </mxCell>
        <mxCell id="6mGawIAPWgqgbx2S7A8o-3" value="&lt;font style=&quot;font-size: 17px;&quot;&gt;Edge&lt;/font&gt;" style="ellipse;shape=cloud;whiteSpace=wrap;html=1;" parent="1" vertex="1">
          <mxGeometry x="520" y="130" width="100" height="70" as="geometry" />
        </mxCell>
        <mxCell id="6mGawIAPWgqgbx2S7A8o-6" value="" style="endArrow=none;html=1;rounded=0;strokeColor=#007FFF;edgeStyle=orthogonalEdgeStyle;curved=1;dashed=1;dashPattern=12 12;entryX=0.07;entryY=0.4;entryDx=0;entryDy=0;entryPerimeter=0;flowAnimation=1;exitX=1;exitY=0.5;exitDx=0;exitDy=0;" parent="1" source="6mGawIAPWgqgbx2S7A8o-8" target="6mGawIAPWgqgbx2S7A8o-1" edge="1">
          <mxGeometry width="50" height="50" relative="1" as="geometry">
            <mxPoint x="80" y="240" as="sourcePoint" />
            <mxPoint x="450" y="330" as="targetPoint" />
          </mxGeometry>
        </mxCell>
        <mxCell id="6mGawIAPWgqgbx2S7A8o-7" value="&lt;font style=&quot;font-size: 17px;&quot;&gt;Office Building&lt;/font&gt;" style="rounded=0;whiteSpace=wrap;html=1;fontFamily=Helvetica;fontSize=11;fontColor=default;labelBackgroundColor=default;" parent="1" vertex="1">
          <mxGeometry x="670" y="460" width="110" height="65" as="geometry" />
        </mxCell>
        <mxCell id="6mGawIAPWgqgbx2S7A8o-8" value="&lt;font style=&quot;font-size: 17px;&quot;&gt;Medical Center&lt;/font&gt;" style="rounded=0;whiteSpace=wrap;html=1;fontFamily=Helvetica;fontSize=11;fontColor=default;labelBackgroundColor=default;" parent="1" vertex="1">
          <mxGeometry x="20" y="330" width="110" height="60" as="geometry" />
        </mxCell>
        <mxCell id="6mGawIAPWgqgbx2S7A8o-9" value="&lt;font style=&quot;font-size: 17px;&quot;&gt;Commercial Area&lt;/font&gt;" style="rounded=0;whiteSpace=wrap;html=1;fontFamily=Helvetica;fontSize=11;fontColor=default;labelBackgroundColor=default;" parent="1" vertex="1">
          <mxGeometry x="680" y="200" width="110" height="60" as="geometry" />
        </mxCell>
        <mxCell id="6mGawIAPWgqgbx2S7A8o-10" value="" style="endArrow=none;html=1;rounded=0;dashed=1;dashPattern=12 12;strokeColor=#007FFF;align=center;verticalAlign=middle;fontFamily=Helvetica;fontSize=11;fontColor=default;labelBackgroundColor=default;edgeStyle=orthogonalEdgeStyle;flowAnimation=1;curved=1;entryX=0;entryY=0.5;entryDx=0;entryDy=0;exitX=0.875;exitY=0.5;exitDx=0;exitDy=0;exitPerimeter=0;" parent="1" source="6mGawIAPWgqgbx2S7A8o-3" target="6mGawIAPWgqgbx2S7A8o-9" edge="1">
          <mxGeometry width="50" height="50" relative="1" as="geometry">
            <mxPoint x="400" y="380" as="sourcePoint" />
            <mxPoint x="450" y="330" as="targetPoint" />
          </mxGeometry>
        </mxCell>
        <mxCell id="6mGawIAPWgqgbx2S7A8o-12" value="" style="endArrow=none;html=1;rounded=0;dashed=1;dashPattern=12 12;strokeColor=#007FFF;align=center;verticalAlign=middle;fontFamily=Helvetica;fontSize=11;fontColor=default;labelBackgroundColor=default;edgeStyle=orthogonalEdgeStyle;flowAnimation=1;curved=1;exitX=0;exitY=0.5;exitDx=0;exitDy=0;entryX=0.875;entryY=0.5;entryDx=0;entryDy=0;entryPerimeter=0;" parent="1" source="6mGawIAPWgqgbx2S7A8o-7" target="6mGawIAPWgqgbx2S7A8o-2" edge="1">
          <mxGeometry width="50" height="50" relative="1" as="geometry">
            <mxPoint x="400" y="380" as="sourcePoint" />
            <mxPoint x="450" y="330" as="targetPoint" />
          </mxGeometry>
        </mxCell>
        <mxCell id="6mGawIAPWgqgbx2S7A8o-13" value="" style="shape=filledEdge;rounded=0;fixDash=1;endArrow=none;strokeWidth=10;fillColor=none;html=1;dashed=1;dashPattern=12 12;strokeColor=#007FFF;align=center;verticalAlign=middle;fontFamily=Helvetica;fontSize=11;fontColor=default;labelBackgroundColor=default;flowAnimation=1;exitX=0.07;exitY=0.4;exitDx=0;exitDy=0;exitPerimeter=0;entryX=0.704;entryY=0.01;entryDx=0;entryDy=0;entryPerimeter=0;" parent="1" source="6mGawIAPWgqgbx2S7A8o-3" edge="1" target="csZzhHP3Tv6w-QQpMZuR-1">
          <mxGeometry width="60" height="40" relative="1" as="geometry">
            <mxPoint x="430" y="410" as="sourcePoint" />
            <mxPoint x="340" y="350" as="targetPoint" />
          </mxGeometry>
        </mxCell>
        <mxCell id="6mGawIAPWgqgbx2S7A8o-14" value="" style="shape=filledEdge;rounded=0;fixDash=1;endArrow=none;strokeWidth=10;fillColor=none;html=1;dashed=1;dashPattern=12 12;strokeColor=#007FFF;align=center;verticalAlign=middle;fontFamily=Helvetica;fontSize=11;fontColor=default;labelBackgroundColor=default;flowAnimation=1;exitX=0.96;exitY=0.526;exitDx=0;exitDy=0;exitPerimeter=0;entryX=0.12;entryY=0.1;entryDx=0;entryDy=0;entryPerimeter=0;" parent="1" source="6mGawIAPWgqgbx2S7A8o-1" target="csZzhHP3Tv6w-QQpMZuR-1" edge="1">
          <mxGeometry width="60" height="40" relative="1" as="geometry">
            <mxPoint x="390" y="370" as="sourcePoint" />
            <mxPoint x="295" y="365" as="targetPoint" />
          </mxGeometry>
        </mxCell>
        <mxCell id="6mGawIAPWgqgbx2S7A8o-15" value="" style="shape=filledEdge;rounded=0;fixDash=1;endArrow=none;strokeWidth=10;fillColor=none;html=1;dashed=1;dashPattern=12 12;strokeColor=#007FFF;align=center;verticalAlign=middle;fontFamily=Helvetica;fontSize=11;fontColor=default;labelBackgroundColor=default;flowAnimation=1;entryX=1;entryY=0.5;entryDx=0;entryDy=0;entryPerimeter=0;exitX=0.07;exitY=0.4;exitDx=0;exitDy=0;exitPerimeter=0;" parent="1" source="6mGawIAPWgqgbx2S7A8o-2" target="csZzhHP3Tv6w-QQpMZuR-1" edge="1">
          <mxGeometry width="60" height="40" relative="1" as="geometry">
            <mxPoint x="390" y="370" as="sourcePoint" />
            <mxPoint x="357.5" y="380" as="targetPoint" />
          </mxGeometry>
        </mxCell>
        <mxCell id="6mGawIAPWgqgbx2S7A8o-16" value="" style="curved=1;rounded=0;fixDash=1;endArrow=none;strokeWidth=10;fillColor=none;edgeStyle=orthogonalEdgeStyle;html=1;strokeColor=#ff007b;align=center;verticalAlign=middle;fontFamily=Helvetica;fontSize=11;fontColor=default;labelBackgroundColor=default;flowAnimation=1;exitX=0.5;exitY=0;exitDx=0;exitDy=0;exitPerimeter=0;dashed=1;dashPattern=12 12;entryX=0.41;entryY=1;entryDx=0;entryDy=0;entryPerimeter=0;" parent="1" source="csZzhHP3Tv6w-QQpMZuR-1" target="csZzhHP3Tv6w-QQpMZuR-7" edge="1">
          <mxGeometry width="60" height="40" relative="1" as="geometry">
            <mxPoint x="310" y="356" as="sourcePoint" />
            <mxPoint x="290" y="180" as="targetPoint" />
          </mxGeometry>
        </mxCell>
        <mxCell id="6mGawIAPWgqgbx2S7A8o-17" value="" style="image;aspect=fixed;html=1;points=[];align=center;fontSize=12;image=img/lib/azure2/other/Azure_A.svg;fontFamily=Helvetica;fontColor=default;labelBackgroundColor=default;" parent="1" vertex="1">
          <mxGeometry x="640" y="-300" width="68" height="64.12" as="geometry" />
        </mxCell>
        <mxCell id="6mGawIAPWgqgbx2S7A8o-23" value="&lt;font style=&quot;font-size: 24px;&quot;&gt;pnet1&lt;/font&gt;" style="points=[[0,0.64,0],[0.2,0.15,0],[0.4,0.01,0],[0.79,0.25,0],[1,0.65,0],[0.8,0.86,0],[0.41,1,0],[0.16,0.86,0]];verticalLabelPosition=bottom;sketch=0;html=1;verticalAlign=top;aspect=fixed;align=center;pointerEvents=1;shape=mxgraph.cisco19.cloud2;fillColor=#FFE9AA;strokeColor=none;fontFamily=Helvetica;fontSize=11;fontColor=default;labelBackgroundColor=default;" parent="1" vertex="1">
          <mxGeometry x="180.01000000000005" y="660" width="83.33" height="50" as="geometry" />
        </mxCell>
        <mxCell id="6mGawIAPWgqgbx2S7A8o-25" value="" style="fontColor=#0066CC;verticalAlign=top;verticalLabelPosition=bottom;labelPosition=center;align=center;html=1;outlineConnect=0;fillColor=#CCCCCC;strokeColor=#6881B3;gradientColor=none;gradientDirection=north;strokeWidth=2;shape=mxgraph.networks.server;fontFamily=Helvetica;fontSize=11;labelBackgroundColor=default;" parent="1" vertex="1">
          <mxGeometry x="136.67000000000002" y="880" width="70" height="60" as="geometry" />
        </mxCell>
        <mxCell id="6mGawIAPWgqgbx2S7A8o-27" value="&lt;font style=&quot;font-size: 17px;&quot;&gt;Hyper-V Cluster&lt;/font&gt;" style="text;html=1;align=center;verticalAlign=middle;resizable=0;points=[];autosize=1;strokeColor=none;fillColor=none;fontFamily=Helvetica;fontSize=11;fontColor=default;labelBackgroundColor=default;" parent="1" vertex="1">
          <mxGeometry x="250" y="910" width="140" height="30" as="geometry" />
        </mxCell>
        <mxCell id="6mGawIAPWgqgbx2S7A8o-28" value="&lt;font style=&quot;font-size: 17px;&quot;&gt;SAIT Network&lt;/font&gt;" style="text;html=1;align=center;verticalAlign=middle;resizable=0;points=[];autosize=1;strokeColor=none;fillColor=none;fontFamily=Helvetica;fontSize=11;fontColor=default;labelBackgroundColor=default;" parent="1" vertex="1">
          <mxGeometry x="245.02" y="-282.9399999999999" width="130" height="30" as="geometry" />
        </mxCell>
        <mxCell id="6mGawIAPWgqgbx2S7A8o-32" value="" style="fontColor=#0066CC;verticalAlign=top;verticalLabelPosition=bottom;labelPosition=center;align=center;html=1;outlineConnect=0;fillColor=#CCCCCC;strokeColor=#6881B3;gradientColor=none;gradientDirection=north;strokeWidth=2;shape=mxgraph.networks.server;fontFamily=Helvetica;fontSize=11;labelBackgroundColor=default;" parent="1" vertex="1">
          <mxGeometry x="430" y="880" width="80" height="60" as="geometry" />
        </mxCell>
        <mxCell id="6mGawIAPWgqgbx2S7A8o-33" value="&lt;font style=&quot;font-size: 17px;&quot;&gt;Cloud Adoption MS&lt;/font&gt;" style="text;html=1;align=center;verticalAlign=middle;resizable=0;points=[];autosize=1;strokeColor=none;fillColor=none;fontFamily=Helvetica;fontSize=11;fontColor=default;labelBackgroundColor=default;" parent="1" vertex="1">
          <mxGeometry x="589" y="-220" width="170" height="30" as="geometry" />
        </mxCell>
        <mxCell id="1L5787LJu1XgPHwTJM3e-3" value="" style="rounded=1;whiteSpace=wrap;html=1;strokeWidth=2;fillWeight=4;hachureGap=8;hachureAngle=45;fillColor=#1ba1e2;sketch=1;" parent="1" vertex="1">
          <mxGeometry x="280.02" y="70" width="60" height="20" as="geometry" />
        </mxCell>
        <mxCell id="1L5787LJu1XgPHwTJM3e-4" value="&lt;font style=&quot;font-size: 24px;&quot;&gt;eth0&lt;/font&gt;" style="text;html=1;align=center;verticalAlign=middle;resizable=0;points=[];autosize=1;strokeColor=none;fillColor=none;" parent="1" vertex="1">
          <mxGeometry x="220.00000000000003" y="30" width="70" height="40" as="geometry" />
        </mxCell>
        <mxCell id="1L5787LJu1XgPHwTJM3e-5" value="" style="shape=filledEdge;rounded=0;fixDash=1;endArrow=none;strokeWidth=10;fillColor=none;html=1;dashed=1;dashPattern=12 12;strokeColor=#007FFF;align=center;verticalAlign=middle;fontFamily=Helvetica;fontSize=11;fontColor=default;labelBackgroundColor=default;flowAnimation=1;entryX=0.75;entryY=0;entryDx=0;entryDy=0;entryPerimeter=0;edgeStyle=orthogonalEdgeStyle;elbow=vertical;curved=1;exitX=0.685;exitY=0.998;exitDx=0;exitDy=0;exitPerimeter=0;" parent="1" source="csZzhHP3Tv6w-QQpMZuR-1" target="1L5787LJu1XgPHwTJM3e-10" edge="1">
          <mxGeometry width="60" height="40" relative="1" as="geometry">
            <mxPoint x="325" y="407" as="sourcePoint" />
            <mxPoint x="271.67" y="546" as="targetPoint" />
          </mxGeometry>
        </mxCell>
        <mxCell id="1L5787LJu1XgPHwTJM3e-10" value="" style="sketch=0;points=[[0.015,0.015,0],[0.985,0.015,0],[0.985,0.985,0],[0.015,0.985,0],[0.25,0,0],[0.5,0,0],[0.75,0,0],[1,0.25,0],[1,0.5,0],[1,0.75,0],[0.75,1,0],[0.5,1,0],[0.25,1,0],[0,0.75,0],[0,0.5,0],[0,0.25,0]];verticalLabelPosition=bottom;html=1;verticalAlign=top;aspect=fixed;align=center;pointerEvents=1;shape=mxgraph.cisco19.rect;prIcon=l2_switch;fillColor=#FAFAFA;strokeColor=#005073;" parent="1" vertex="1">
          <mxGeometry x="258.4" y="530" width="66.62" height="66.62" as="geometry" />
        </mxCell>
        <mxCell id="1L5787LJu1XgPHwTJM3e-15" value="" style="endArrow=none;html=1;rounded=0;exitX=0;exitY=0.5;exitDx=0;exitDy=0;exitPerimeter=0;entryX=1;entryY=0.5;entryDx=0;entryDy=0;entryPerimeter=0;strokeColor=#007FFF;dashed=1;flowAnimation=1;dashPattern=12 12;strokeWidth=1;shadow=0;" parent="1" source="6mGawIAPWgqgbx2S7A8o-32" target="6mGawIAPWgqgbx2S7A8o-25" edge="1">
          <mxGeometry width="50" height="50" relative="1" as="geometry">
            <mxPoint x="309" y="787" as="sourcePoint" />
            <mxPoint x="265" y="820" as="targetPoint" />
          </mxGeometry>
        </mxCell>
        <mxCell id="1L5787LJu1XgPHwTJM3e-19" value="" style="points=[[0,0.64,0],[0.2,0.15,0],[0.4,0.01,0],[0.79,0.25,0],[1,0.65,0],[0.8,0.86,0],[0.41,1,0],[0.16,0.86,0]];verticalLabelPosition=bottom;sketch=0;html=1;verticalAlign=top;aspect=fixed;align=center;pointerEvents=1;shape=mxgraph.cisco19.cloud2;fillColor=#FFE9AA;strokeColor=none;" parent="1" vertex="1">
          <mxGeometry x="263.34" y="-252.94" width="100" height="60" as="geometry" />
        </mxCell>
        <mxCell id="1L5787LJu1XgPHwTJM3e-21" value="" style="shape=filledEdge;curved=1;rounded=0;fixDash=1;endArrow=none;strokeWidth=10;fillColor=none;edgeStyle=orthogonalEdgeStyle;html=1;dashed=1;dashPattern=12 12;strokeColor=#ff007b;align=center;verticalAlign=middle;fontFamily=Helvetica;fontSize=11;fontColor=default;labelBackgroundColor=default;flowAnimation=1;exitX=0.5;exitY=0;exitDx=0;exitDy=0;entryX=0.41;entryY=1;entryDx=0;entryDy=0;entryPerimeter=0;" parent="1" source="1L5787LJu1XgPHwTJM3e-3" target="1L5787LJu1XgPHwTJM3e-19" edge="1">
          <mxGeometry width="60" height="40" relative="1" as="geometry">
            <mxPoint x="320" y="366" as="sourcePoint" />
            <mxPoint x="320" y="40" as="targetPoint" />
          </mxGeometry>
        </mxCell>
        <mxCell id="1L5787LJu1XgPHwTJM3e-22" value="" style="shape=filledEdge;curved=1;rounded=0;fixDash=1;endArrow=none;strokeWidth=10;fillColor=none;edgeStyle=orthogonalEdgeStyle;html=1;dashed=1;dashPattern=12 12;strokeColor=#ff007b;align=center;verticalAlign=middle;fontFamily=Helvetica;fontSize=11;fontColor=default;labelBackgroundColor=default;flowAnimation=1;exitX=0.99;exitY=0.467;exitDx=0;exitDy=0;entryX=-0.02;entryY=0.4;entryDx=0;entryDy=0;entryPerimeter=0;exitPerimeter=0;" parent="1" source="1L5787LJu1XgPHwTJM3e-19" target="6mGawIAPWgqgbx2S7A8o-17" edge="1">
          <mxGeometry width="60" height="40" relative="1" as="geometry">
            <mxPoint x="305" y="20" as="sourcePoint" />
            <mxPoint x="296" y="-175" as="targetPoint" />
          </mxGeometry>
        </mxCell>
        <mxCell id="1L5787LJu1XgPHwTJM3e-24" value="" style="shape=filledEdge;curved=1;rounded=0;fixDash=1;endArrow=none;strokeWidth=10;fillColor=none;edgeStyle=orthogonalEdgeStyle;html=1;dashed=1;dashPattern=12 12;strokeColor=#ff007b;align=center;verticalAlign=middle;fontFamily=Helvetica;fontSize=11;fontColor=default;labelBackgroundColor=default;flowAnimation=1;" parent="1" edge="1">
          <mxGeometry width="60" height="40" relative="1" as="geometry">
            <mxPoint x="-250" y="-170" as="sourcePoint" />
            <mxPoint x="-150" y="-170" as="targetPoint" />
          </mxGeometry>
        </mxCell>
        <mxCell id="1L5787LJu1XgPHwTJM3e-25" value="&lt;font style=&quot;font-size: 17px;&quot;&gt;Site-to-Site VPN&lt;br&gt;To the Cloud&lt;/font&gt;" style="text;html=1;align=center;verticalAlign=middle;resizable=0;points=[];autosize=1;strokeColor=none;fillColor=none;" parent="1" vertex="1">
          <mxGeometry x="-285" y="-162" width="150" height="50" as="geometry" />
        </mxCell>
        <mxCell id="1L5787LJu1XgPHwTJM3e-26" value="" style="shape=filledEdge;rounded=0;fixDash=1;endArrow=none;strokeWidth=10;fillColor=none;edgeStyle=entityRelationEdgeStyle;html=1;dashed=1;dashPattern=12 12;strokeColor=#007FFF;align=center;verticalAlign=middle;fontFamily=Helvetica;fontSize=11;fontColor=default;labelBackgroundColor=default;flowAnimation=1;curved=1;" parent="1" edge="1">
          <mxGeometry width="60" height="40" relative="1" as="geometry">
            <mxPoint x="-250" y="-70" as="sourcePoint" />
            <mxPoint x="-150" y="-70" as="targetPoint" />
            <Array as="points">
              <mxPoint x="200" y="220" />
            </Array>
          </mxGeometry>
        </mxCell>
        <mxCell id="1L5787LJu1XgPHwTJM3e-27" value="&lt;font style=&quot;font-size: 17px;&quot;&gt;Site-to-Site VPN&lt;/font&gt;&lt;div&gt;&lt;font style=&quot;font-size: 17px;&quot;&gt;On-Premises&lt;/font&gt;&lt;/div&gt;" style="text;html=1;align=center;verticalAlign=middle;resizable=0;points=[];autosize=1;strokeColor=none;fillColor=none;" parent="1" vertex="1">
          <mxGeometry x="-285" y="-60" width="150" height="50" as="geometry" />
        </mxCell>
        <mxCell id="1L5787LJu1XgPHwTJM3e-29" value="" style="shape=filledEdge;rounded=0;fixDash=1;endArrow=none;strokeWidth=10;fillColor=none;html=1;dashed=1;dashPattern=12 12;strokeColor=#ff007b;align=center;verticalAlign=middle;fontFamily=Helvetica;fontSize=11;fontColor=default;labelBackgroundColor=default;flowAnimation=1;entryX=0;entryY=0.5;entryDx=0;entryDy=0;entryPerimeter=0;exitX=0.8;exitY=0.8;exitDx=0;exitDy=0;exitPerimeter=0;" parent="1" source="6mGawIAPWgqgbx2S7A8o-1" target="csZzhHP3Tv6w-QQpMZuR-1" edge="1">
          <mxGeometry width="60" height="40" relative="1" as="geometry">
            <mxPoint x="110" y="430" as="sourcePoint" />
            <mxPoint x="276.99999999999955" y="374" as="targetPoint" />
          </mxGeometry>
        </mxCell>
        <mxCell id="1L5787LJu1XgPHwTJM3e-30" value="" style="shape=filledEdge;rounded=0;fixDash=1;endArrow=none;strokeWidth=10;fillColor=none;html=1;dashed=1;dashPattern=12 12;strokeColor=#ff007b;align=center;verticalAlign=middle;fontFamily=Helvetica;fontSize=11;fontColor=default;labelBackgroundColor=default;flowAnimation=1;entryX=0.88;entryY=0.1;entryDx=0;entryDy=0;entryPerimeter=0;exitX=0.13;exitY=0.77;exitDx=0;exitDy=0;exitPerimeter=0;" parent="1" source="6mGawIAPWgqgbx2S7A8o-3" target="csZzhHP3Tv6w-QQpMZuR-1" edge="1">
          <mxGeometry width="60" height="40" relative="1" as="geometry">
            <mxPoint x="130" y="256" as="sourcePoint" />
            <mxPoint x="358" y="365" as="targetPoint" />
          </mxGeometry>
        </mxCell>
        <mxCell id="1L5787LJu1XgPHwTJM3e-31" value="" style="shape=filledEdge;rounded=0;fixDash=1;endArrow=none;strokeWidth=10;fillColor=none;html=1;dashed=1;dashPattern=12 12;strokeColor=#ff007b;align=center;verticalAlign=middle;fontFamily=Helvetica;fontSize=11;fontColor=default;labelBackgroundColor=default;flowAnimation=1;entryX=0.88;entryY=0.9;entryDx=0;entryDy=0;entryPerimeter=0;exitX=0.13;exitY=0.77;exitDx=0;exitDy=0;exitPerimeter=0;" parent="1" source="6mGawIAPWgqgbx2S7A8o-2" target="csZzhHP3Tv6w-QQpMZuR-1" edge="1">
          <mxGeometry width="60" height="40" relative="1" as="geometry">
            <mxPoint x="140" y="266" as="sourcePoint" />
            <mxPoint x="350" y="398" as="targetPoint" />
          </mxGeometry>
        </mxCell>
        <mxCell id="1L5787LJu1XgPHwTJM3e-32" value="" style="shape=filledEdge;rounded=0;fixDash=1;endArrow=none;strokeWidth=10;fillColor=none;html=1;dashed=1;dashPattern=12 12;strokeColor=#ff007b;align=center;verticalAlign=middle;fontFamily=Helvetica;fontSize=11;fontColor=default;labelBackgroundColor=default;flowAnimation=1;exitX=0.5;exitY=0;exitDx=0;exitDy=0;exitPerimeter=0;entryX=0.5;entryY=1;entryDx=0;entryDy=0;entryPerimeter=0;" parent="1" source="1L5787LJu1XgPHwTJM3e-10" target="csZzhHP3Tv6w-QQpMZuR-1" edge="1">
          <mxGeometry width="60" height="40" relative="1" as="geometry">
            <mxPoint x="250" y="450" as="sourcePoint" />
            <mxPoint x="300.99999999999955" y="398" as="targetPoint" />
          </mxGeometry>
        </mxCell>
        <mxCell id="1L5787LJu1XgPHwTJM3e-33" value="&lt;font style=&quot;font-size: 17px;&quot;&gt;192.168.0.0/24&lt;/font&gt;" style="text;html=1;align=center;verticalAlign=middle;resizable=0;points=[];autosize=1;strokeColor=none;fillColor=none;" parent="1" vertex="1">
          <mxGeometry x="30" y="160" width="140" height="30" as="geometry" />
        </mxCell>
        <mxCell id="1L5787LJu1XgPHwTJM3e-34" value="&lt;font style=&quot;font-size: 17px;&quot;&gt;172.16.0.0/16&lt;/font&gt;" style="text;html=1;align=center;verticalAlign=middle;resizable=0;points=[];autosize=1;strokeColor=none;fillColor=none;" parent="1" vertex="1">
          <mxGeometry x="490" y="490" width="130" height="30" as="geometry" />
        </mxCell>
        <mxCell id="1L5787LJu1XgPHwTJM3e-35" value="&lt;font style=&quot;font-size: 17px;&quot;&gt;10.0.0.0/8&lt;/font&gt;" style="text;html=1;align=center;verticalAlign=middle;resizable=0;points=[];autosize=1;strokeColor=none;fillColor=none;" parent="1" vertex="1">
          <mxGeometry x="530" y="200" width="100" height="30" as="geometry" />
        </mxCell>
        <mxCell id="1L5787LJu1XgPHwTJM3e-37" value="&lt;font style=&quot;font-size: 17px;&quot;&gt;192.168.0.0/24&lt;/font&gt;" style="text;html=1;align=center;verticalAlign=middle;resizable=0;points=[];autosize=1;strokeColor=none;fillColor=none;" parent="1" vertex="1">
          <mxGeometry x="370" y="580" width="140" height="30" as="geometry" />
        </mxCell>
        <mxCell id="1L5787LJu1XgPHwTJM3e-38" value="&lt;font style=&quot;font-size: 25px;&quot;&gt;EVE-NG&lt;/font&gt;&lt;div style=&quot;font-size: 25px;&quot;&gt;&lt;font style=&quot;font-size: 25px;&quot;&gt;Server&lt;/font&gt;&lt;/div&gt;" style="text;html=1;align=center;verticalAlign=middle;resizable=0;points=[];autosize=1;strokeColor=none;fillColor=none;" parent="1" vertex="1">
          <mxGeometry x="-220" y="320" width="120" height="70" as="geometry" />
        </mxCell>
        <UserObject label="&lt;font style=&quot;font-size: 17px;&quot;&gt;How draw.io works&lt;/font&gt;" link="https://app.diagrams.net/?src=about#HSohal-03%2FDraw.io%2Fmain%2FStarting%2Fstarting.drawio%23{&quot;pageId&quot;%3A&quot;WkjME66y32wmrguLPD_M&quot;}" linkTarget="_blank" id="1L5787LJu1XgPHwTJM3e-41">
          <mxCell style="text;html=1;strokeColor=none;fillColor=none;whiteSpace=wrap;align=center;verticalAlign=middle;fontColor=#0000EE;fontStyle=4;" parent="1" vertex="1">
            <mxGeometry x="-280" y="200" width="60" height="40" as="geometry" />
          </mxCell>
        </UserObject>
        <mxCell id="1L5787LJu1XgPHwTJM3e-43" value="" style="fontColor=#0066CC;verticalAlign=top;verticalLabelPosition=bottom;labelPosition=center;align=center;html=1;outlineConnect=0;fillColor=#CCCCCC;strokeColor=#6881B3;gradientColor=none;gradientDirection=north;strokeWidth=2;shape=mxgraph.networks.server;fontFamily=Helvetica;fontSize=11;labelBackgroundColor=default;" parent="1" vertex="1">
          <mxGeometry x="-525" y="670.5" width="70" height="60" as="geometry" />
        </mxCell>
        <mxCell id="1L5787LJu1XgPHwTJM3e-45" value="&lt;font style=&quot;font-size: 17px;&quot;&gt;TureNAS&lt;/font&gt;" style="text;html=1;align=center;verticalAlign=middle;resizable=0;points=[];autosize=1;strokeColor=none;fillColor=none;" parent="1" vertex="1">
          <mxGeometry x="-560" y="765.5" width="90" height="30" as="geometry" />
        </mxCell>
        <mxCell id="1L5787LJu1XgPHwTJM3e-47" value="&lt;font style=&quot;font-size: 20px;&quot;&gt;x 3&lt;/font&gt;" style="text;html=1;align=center;verticalAlign=middle;resizable=0;points=[];autosize=1;strokeColor=none;fillColor=none;" parent="1" vertex="1">
          <mxGeometry x="325.02" y="480" width="50" height="40" as="geometry" />
        </mxCell>
        <mxCell id="AoQXtGAxu0GQkbMHswNZ-3" value="" style="shape=singleArrow;whiteSpace=wrap;html=1;" parent="1" vertex="1">
          <mxGeometry x="-650" y="670.5" width="100" height="60" as="geometry" />
        </mxCell>
        <mxCell id="csZzhHP3Tv6w-QQpMZuR-1" value="" style="shape=mxgraph.cisco.routers.router;sketch=0;html=1;pointerEvents=1;dashed=0;fillColor=#036897;strokeColor=#ffffff;strokeWidth=2;verticalLabelPosition=bottom;verticalAlign=top;align=center;outlineConnect=0;" vertex="1" parent="1">
          <mxGeometry x="277" y="360" width="78" height="53" as="geometry" />
        </mxCell>
        <mxCell id="csZzhHP3Tv6w-QQpMZuR-7" value="" style="points=[[0,0.64,0],[0.2,0.15,0],[0.4,0.01,0],[0.79,0.25,0],[1,0.65,0],[0.8,0.86,0],[0.41,1,0],[0.16,0.86,0]];verticalLabelPosition=bottom;sketch=0;html=1;verticalAlign=top;aspect=fixed;align=center;pointerEvents=1;shape=mxgraph.cisco19.cloud2;fillColor=#FFE9AA;strokeColor=none;" vertex="1" parent="1">
          <mxGeometry x="263.34" y="120" width="100" height="60" as="geometry" />
        </mxCell>
        <mxCell id="csZzhHP3Tv6w-QQpMZuR-9" value="" style="shape=filledEdge;curved=1;rounded=0;fixDash=1;endArrow=none;strokeWidth=10;fillColor=none;edgeStyle=orthogonalEdgeStyle;html=1;dashed=1;dashPattern=12 12;strokeColor=#ff007b;align=center;verticalAlign=middle;fontFamily=Helvetica;fontSize=11;fontColor=default;labelBackgroundColor=default;flowAnimation=1;entryX=0.5;entryY=1;entryDx=0;entryDy=0;exitX=0.555;exitY=0.179;exitDx=0;exitDy=0;exitPerimeter=0;" edge="1" parent="1" source="csZzhHP3Tv6w-QQpMZuR-7" target="1L5787LJu1XgPHwTJM3e-3">
          <mxGeometry width="60" height="40" relative="1" as="geometry">
            <mxPoint x="360" y="90" as="sourcePoint" />
            <mxPoint x="314" y="-183" as="targetPoint" />
            <Array as="points">
              <mxPoint x="310" y="130" />
            </Array>
          </mxGeometry>
        </mxCell>
        <mxCell id="csZzhHP3Tv6w-QQpMZuR-10" value="&lt;font style=&quot;font-size: 24px;&quot;&gt;pnet0&lt;/font&gt;" style="text;html=1;align=center;verticalAlign=middle;resizable=0;points=[];autosize=1;strokeColor=none;fillColor=none;" vertex="1" parent="1">
          <mxGeometry x="320" y="180" width="80" height="40" as="geometry" />
        </mxCell>
        <mxCell id="csZzhHP3Tv6w-QQpMZuR-14" value="" style="points=[[0,0.64,0],[0.2,0.15,0],[0.4,0.01,0],[0.79,0.25,0],[1,0.65,0],[0.8,0.86,0],[0.41,1,0],[0.16,0.86,0]];verticalLabelPosition=bottom;sketch=0;html=1;verticalAlign=top;aspect=fixed;align=center;pointerEvents=1;shape=mxgraph.cisco19.cloud2;fillColor=#FFE9AA;strokeColor=none;" vertex="1" parent="1">
          <mxGeometry x="320" y="653" width="100" height="60" as="geometry" />
        </mxCell>
        <mxCell id="csZzhHP3Tv6w-QQpMZuR-15" value="&lt;font style=&quot;font-size: 24px;&quot;&gt;pnet2&lt;/font&gt;" style="text;html=1;align=center;verticalAlign=middle;resizable=0;points=[];autosize=1;strokeColor=none;fillColor=none;" vertex="1" parent="1">
          <mxGeometry x="330" y="713" width="80" height="40" as="geometry" />
        </mxCell>
        <mxCell id="csZzhHP3Tv6w-QQpMZuR-17" value="" style="endArrow=none;html=1;rounded=0;exitX=0.5;exitY=0;exitDx=0;exitDy=0;exitPerimeter=0;strokeColor=#007FFF;dashed=1;flowAnimation=1;dashPattern=12 12;strokeWidth=1;shadow=0;entryX=0.8;entryY=0.86;entryDx=0;entryDy=0;entryPerimeter=0;" edge="1" parent="1" source="6mGawIAPWgqgbx2S7A8o-32" target="csZzhHP3Tv6w-QQpMZuR-14">
          <mxGeometry width="50" height="50" relative="1" as="geometry">
            <mxPoint x="395" y="880" as="sourcePoint" />
            <mxPoint x="230" y="780" as="targetPoint" />
          </mxGeometry>
        </mxCell>
        <mxCell id="csZzhHP3Tv6w-QQpMZuR-18" value="" style="endArrow=none;html=1;rounded=0;strokeColor=#007FFF;dashed=1;flowAnimation=1;dashPattern=12 12;strokeWidth=1;shadow=0;entryX=0.5;entryY=0;entryDx=0;entryDy=0;entryPerimeter=0;exitX=0.41;exitY=1;exitDx=0;exitDy=0;exitPerimeter=0;" edge="1" parent="1" source="csZzhHP3Tv6w-QQpMZuR-26" target="6mGawIAPWgqgbx2S7A8o-25">
          <mxGeometry width="50" height="50" relative="1" as="geometry">
            <mxPoint x="380" y="790" as="sourcePoint" />
            <mxPoint x="240" y="790" as="targetPoint" />
          </mxGeometry>
        </mxCell>
        <mxCell id="csZzhHP3Tv6w-QQpMZuR-22" value="" style="endArrow=none;html=1;rounded=0;strokeColor=#007FFF;dashed=1;flowAnimation=1;dashPattern=12 12;strokeWidth=1;shadow=0;entryX=0.584;entryY=0.236;entryDx=0;entryDy=0;entryPerimeter=0;exitX=0.25;exitY=1;exitDx=0;exitDy=0;exitPerimeter=0;" edge="1" parent="1" source="1L5787LJu1XgPHwTJM3e-10" target="6mGawIAPWgqgbx2S7A8o-23">
          <mxGeometry width="50" height="50" relative="1" as="geometry">
            <mxPoint x="224" y="720" as="sourcePoint" />
            <mxPoint x="215" y="850" as="targetPoint" />
          </mxGeometry>
        </mxCell>
        <mxCell id="csZzhHP3Tv6w-QQpMZuR-23" value="" style="endArrow=none;html=1;rounded=0;strokeColor=#007FFF;dashed=1;flowAnimation=1;dashPattern=12 12;strokeWidth=1;shadow=0;entryX=0.4;entryY=0.01;entryDx=0;entryDy=0;entryPerimeter=0;exitX=0.75;exitY=1;exitDx=0;exitDy=0;exitPerimeter=0;" edge="1" parent="1" source="1L5787LJu1XgPHwTJM3e-10" target="csZzhHP3Tv6w-QQpMZuR-14">
          <mxGeometry width="50" height="50" relative="1" as="geometry">
            <mxPoint x="234" y="730" as="sourcePoint" />
            <mxPoint x="225" y="860" as="targetPoint" />
          </mxGeometry>
        </mxCell>
        <mxCell id="csZzhHP3Tv6w-QQpMZuR-24" value="&lt;font style=&quot;font-size: 24px;&quot;&gt;vSwitch&lt;/font&gt;" style="text;html=1;align=center;verticalAlign=middle;resizable=0;points=[];autosize=1;strokeColor=none;fillColor=none;" vertex="1" parent="1">
          <mxGeometry x="145.02" y="550" width="110" height="40" as="geometry" />
        </mxCell>
        <mxCell id="csZzhHP3Tv6w-QQpMZuR-25" value="" style="shape=ext;double=1;rounded=1;whiteSpace=wrap;html=1;fillColor=none;strokeColor=default;glass=1;shadow=0;" vertex="1" parent="1">
          <mxGeometry x="-10" y="110" width="890" height="670" as="geometry" />
        </mxCell>
        <mxCell id="csZzhHP3Tv6w-QQpMZuR-27" value="" style="rounded=1;whiteSpace=wrap;html=1;strokeWidth=2;fillWeight=4;hachureGap=8;hachureAngle=45;fillColor=#1ba1e2;sketch=1;" vertex="1" parent="1">
          <mxGeometry x="410" y="795.5" width="60" height="20" as="geometry" />
        </mxCell>
        <mxCell id="csZzhHP3Tv6w-QQpMZuR-30" value="" style="endArrow=none;html=1;rounded=0;strokeColor=#007FFF;dashed=1;flowAnimation=1;dashPattern=12 12;strokeWidth=1;shadow=0;entryX=0.5;entryY=0;entryDx=0;entryDy=0;entryPerimeter=0;exitX=0.41;exitY=1;exitDx=0;exitDy=0;exitPerimeter=0;" edge="1" parent="1" source="6mGawIAPWgqgbx2S7A8o-23" target="csZzhHP3Tv6w-QQpMZuR-26">
          <mxGeometry width="50" height="50" relative="1" as="geometry">
            <mxPoint x="214" y="710" as="sourcePoint" />
            <mxPoint x="205" y="840" as="targetPoint" />
          </mxGeometry>
        </mxCell>
        <mxCell id="csZzhHP3Tv6w-QQpMZuR-26" value="" style="rounded=1;whiteSpace=wrap;html=1;strokeWidth=2;fillWeight=4;hachureGap=8;hachureAngle=45;fillColor=#1ba1e2;sketch=1;" vertex="1" parent="1">
          <mxGeometry x="175" y="795.5" width="60" height="20" as="geometry" />
        </mxCell>
        <mxCell id="csZzhHP3Tv6w-QQpMZuR-31" value="&lt;font style=&quot;font-size: 24px;&quot;&gt;eth2&lt;/font&gt;" style="text;html=1;align=center;verticalAlign=middle;resizable=0;points=[];autosize=1;strokeColor=none;fillColor=none;" vertex="1" parent="1">
          <mxGeometry x="470" y="813" width="70" height="40" as="geometry" />
        </mxCell>
        <mxCell id="csZzhHP3Tv6w-QQpMZuR-32" value="&lt;font style=&quot;font-size: 24px;&quot;&gt;eth1&lt;/font&gt;" style="text;html=1;align=center;verticalAlign=middle;resizable=0;points=[];autosize=1;strokeColor=none;fillColor=none;" vertex="1" parent="1">
          <mxGeometry x="105" y="813" width="70" height="40" as="geometry" />
        </mxCell>
        <mxCell id="csZzhHP3Tv6w-QQpMZuR-34" value="" style="shape=singleArrow;whiteSpace=wrap;html=1;rotation=-30;" vertex="1" parent="1">
          <mxGeometry x="-177.7" y="531.25" width="485" height="30" as="geometry" />
        </mxCell>
        <mxCell id="csZzhHP3Tv6w-QQpMZuR-35" value="&lt;div style=&quot;text-align: left;&quot;&gt;&lt;font style=&quot;background-color: initial; font-size: 24px;&quot;&gt;1&lt;/font&gt;&lt;font style=&quot;background-color: initial; font-size: 18px;&quot;&gt;.&amp;nbsp;&lt;/font&gt;&lt;font style=&quot;background-color: initial; font-size: 24px;&quot;&gt;NAT&lt;/font&gt;&lt;/div&gt;&lt;div style=&quot;text-align: left;&quot;&gt;&lt;font style=&quot;font-size: 24px;&quot;&gt;2. Port Forwarding&lt;/font&gt;&lt;/div&gt;&lt;div style=&quot;text-align: left;&quot;&gt;&lt;font style=&quot;font-size: 24px;&quot;&gt;3. Default route to&lt;/font&gt;&lt;/div&gt;&lt;div style=&quot;text-align: left;&quot;&gt;&lt;font style=&quot;font-size: 24px;&quot;&gt;&amp;nbsp; &amp;nbsp; External Network&lt;/font&gt;&lt;/div&gt;&lt;div style=&quot;text-align: left;&quot;&gt;&lt;font style=&quot;font-size: 24px;&quot;&gt;4. IP on edge interface&lt;/font&gt;&lt;/div&gt;&lt;div style=&quot;text-align: left;&quot;&gt;&lt;font style=&quot;font-size: 24px;&quot;&gt;&amp;nbsp; &amp;nbsp; with same subnet&amp;nbsp;&lt;/font&gt;&lt;/div&gt;&lt;div style=&quot;text-align: left;&quot;&gt;&lt;font style=&quot;font-size: 24px;&quot;&gt;&amp;nbsp; &amp;nbsp; as&amp;nbsp;&lt;/font&gt;&lt;span style=&quot;font-size: 24px; background-color: initial;&quot;&gt;pnet0&lt;/span&gt;&lt;/div&gt;" style="text;html=1;align=center;verticalAlign=middle;resizable=0;points=[];autosize=1;strokeColor=none;fillColor=none;" vertex="1" parent="1">
          <mxGeometry x="-350" y="583" width="260" height="220" as="geometry" />
        </mxCell>
        <mxCell id="csZzhHP3Tv6w-QQpMZuR-36" value="" style="shape=singleArrow;whiteSpace=wrap;html=1;rotation=-195;" vertex="1" parent="1">
          <mxGeometry x="355" y="30" width="170" height="30" as="geometry" />
        </mxCell>
        <mxCell id="csZzhHP3Tv6w-QQpMZuR-38" value="&lt;font style=&quot;font-size: 24px;&quot;&gt;1. Accept packets from&lt;/font&gt;&lt;div&gt;&lt;font style=&quot;font-size: 24px;&quot;&gt;&amp;nbsp; &amp;nbsp; both interfaces&lt;/font&gt;&lt;/div&gt;&lt;div&gt;&lt;font style=&quot;font-size: 24px;&quot;&gt;2. Default Route to inside?&lt;/font&gt;&lt;/div&gt;" style="text;html=1;align=left;verticalAlign=middle;resizable=0;points=[];autosize=1;strokeColor=none;fillColor=none;" vertex="1" parent="1">
          <mxGeometry x="540" y="-60" width="310" height="100" as="geometry" />
        </mxCell>
      </root>
    </mxGraphModel>
  </diagram>
</mxfile>
